<svg width="70" height="70" viewBox="0 0 70 70" fill="none" xmlns="http://www.w3.org/2000/svg">
<path d="M66.3057 36.9118C66.3057 35.5311 65.1864 34.4118 63.8057 34.4118C62.425 34.4118 61.3057 35.5311 61.3057 36.9118H66.3057ZM33.4029 8.82353C34.7836 8.82353 35.9029 7.70424 35.9029 6.32353C35.9029 4.94282 34.7836 3.82353 33.4029 3.82353V8.82353ZM51.1043 36.9118C51.1043 35.5311 49.985 34.4118 48.6043 34.4118C47.2236 34.4118 46.1043 35.5311 46.1043 36.9118H51.1043ZM33.4029 24.1176C34.7836 24.1176 35.9029 22.9984 35.9029 21.6176C35.9029 20.2369 34.7836 19.1176 33.4029 19.1176V24.1176ZM48.6123 24.5394C49.5856 23.5601 49.5808 21.9772 48.6015 21.0039C47.6223 20.0306 46.0394 20.0354 45.066 21.0146L48.6123 24.5394ZM31.6297 34.5329C30.6564 35.5121 30.6612 37.095 31.6405 38.0684C32.6197 39.0417 34.2027 39.0369 35.176 38.0576L31.6297 34.5329ZM67 13.3146L68.7731 15.077C69.4394 14.4066 69.6707 13.4178 69.3708 12.5214C69.071 11.6251 68.2912 10.9745 67.3557 10.84L67 13.3146ZM54.9073 25.481L54.1124 27.8512C55.0144 28.1537 56.0098 27.9181 56.6805 27.2434L54.9073 25.481ZM44.1583 14.6664L42.3852 12.904C41.7207 13.5725 41.4887 14.5579 41.7852 15.4526L44.1583 14.6664ZM56.251 2.5L58.7261 2.14855C58.5928 1.20929 57.9393 0.42644 57.0389 0.127427C56.1386 -0.171586 55.1466 0.0647597 54.4778 0.737614L56.251 2.5ZM46.8456 22.7773L44.4724 23.5636C44.7199 24.3105 45.3046 24.8974 46.0507 25.1476L46.8456 22.7773ZM57.5946 11.9628L55.1194 12.3142C55.2756 13.4143 56.1391 14.2793 57.2389 14.4373L57.5946 11.9628ZM61.3057 36.9118C61.3057 52.4388 48.7989 65 33.4029 65V70C51.5889 70 66.3057 55.1715 66.3057 36.9118H61.3057ZM33.4029 65C18.0068 65 5.5 52.4388 5.5 36.9118H0.5C0.5 55.1715 15.2168 70 33.4029 70V65ZM5.5 36.9118C5.5 21.3847 18.0068 8.82353 33.4029 8.82353V3.82353C15.2168 3.82353 0.5 18.652 0.5 36.9118H5.5ZM46.1043 36.9118C46.1043 43.9921 40.4034 49.7059 33.4029 49.7059V54.7059C43.1934 54.7059 51.1043 46.7248 51.1043 36.9118H46.1043ZM33.4029 49.7059C26.4024 49.7059 20.7014 43.9921 20.7014 36.9118H15.7014C15.7014 46.7248 23.6123 54.7059 33.4029 54.7059V49.7059ZM20.7014 36.9118C20.7014 29.8314 26.4024 24.1176 33.4029 24.1176V19.1176C23.6123 19.1176 15.7014 27.0987 15.7014 36.9118H20.7014ZM45.066 21.0146L31.6297 34.5329L35.176 38.0576L48.6123 24.5394L45.066 21.0146ZM65.2269 11.5522L53.1342 23.7186L56.6805 27.2434L68.7731 15.077L65.2269 11.5522ZM45.9314 16.4288L58.0241 4.26239L54.4778 0.737614L42.3852 12.904L45.9314 16.4288ZM55.7022 23.1107L47.6405 20.4071L46.0507 25.1476L54.1124 27.8512L55.7022 23.1107ZM49.2187 21.9911L46.5315 13.8801L41.7852 15.4526L44.4724 23.5636L49.2187 21.9911ZM53.7758 2.85145L55.1194 12.3142L60.0698 11.6113L58.7261 2.14855L53.7758 2.85145ZM57.2389 14.4373L66.6443 15.7891L67.3557 10.84L57.9503 9.48818L57.2389 14.4373Z" fill="url(#paint0_linear_2450_3262)"></path>
<defs>
<linearGradient id="paint0_linear_2450_3262" x1="35" y1="14.7917" x2="35" y2="67.5" gradientUnits="userSpaceOnUse">
<stop stop-color="#FF9680"></stop>
<stop offset="1" stop-color="#FF6847"></stop>
</linearGradient>
</defs>
</svg>