<svg width="102" height="75" viewBox="0 0 102 75" fill="none" xmlns="http://www.w3.org/2000/svg">
<path d="M50.1227 3.60979C50.5017 2.91485 51.4996 2.91485 51.8786 3.60979L54.4078 8.2475C54.5517 8.51123 54.8064 8.69633 55.1017 8.75162L60.294 9.72396C61.0721 9.86966 61.3804 10.8187 60.8366 11.3939L57.2075 15.2325C57.0011 15.4508 56.9038 15.7503 56.9424 16.0482L57.6222 21.2868C57.7241 22.0718 56.9168 22.6583 56.2017 22.3189L51.4295 20.0536C51.1581 19.9247 50.8432 19.9247 50.5718 20.0536L45.7996 22.3189C45.0845 22.6583 44.2772 22.0718 44.3791 21.2868L45.0589 16.0482C45.0975 15.7503 45.0002 15.4508 44.7938 15.2325L41.1647 11.3939C40.6209 10.8187 40.9292 9.86966 41.7073 9.72396L46.8996 8.75162C47.1949 8.69633 47.4496 8.51123 47.5935 8.2475L50.1227 3.60979Z" stroke="url(#paint0_linear_2504_2074)" stroke-width="5"></path>
<path d="M67.1544 72V36.1025H34.8468V72M67.1544 72H34.8468M67.1544 72H99.4621V60.3333H67.1544V72ZM34.8468 72V52.2564H2.53906V72H34.8468Z" stroke="url(#paint1_linear_2504_2074)" stroke-width="5"></path>
<defs>
<linearGradient id="paint0_linear_2504_2074" x1="51.0007" y1="6.41239" x2="51.0007" y2="25.3333" gradientUnits="userSpaceOnUse">
<stop stop-color="#FF9680"></stop>
<stop offset="1" stop-color="#FF6847"></stop>
</linearGradient>
<linearGradient id="paint1_linear_2504_2074" x1="51.0006" y1="42.8908" x2="51.0006" y2="72" gradientUnits="userSpaceOnUse">
<stop stop-color="#FF9680"></stop>
<stop offset="1" stop-color="#FF6847"></stop>
</linearGradient>
</defs>
</svg>