<svg width="26" height="25" viewBox="0 0 26 25" fill="none" style="fill: #705df2;" xmlns="http://www.w3.org/2000/svg">
<path d="M12.8572 0C5.75361 0 0 5.73902 0 12.8175C0 18.4817 3.6836 23.2851 8.79113 24.978C9.43399 25.0987 9.66971 24.7024 9.66971 24.3617C9.66971 24.0573 9.65899 23.2509 9.65364 22.1828C6.07718 22.9561 5.32289 20.4631 5.32289 20.4631C4.73789 18.9837 3.89253 18.5885 3.89253 18.5885C2.72788 17.7938 3.98253 17.8099 3.98253 17.8099C5.27361 17.8996 5.95183 19.1301 5.95183 19.1301C7.09826 21.0901 8.96149 20.524 9.6965 20.196C9.81221 19.3672 10.1433 18.8021 10.5108 18.4817C7.65541 18.1613 4.65432 17.059 4.65432 12.1477C4.65432 10.7485 5.15254 9.60562 5.97754 8.7084C5.8329 8.38476 5.39897 7.08165 6.09004 5.31604C6.09004 5.31604 7.16683 4.97211 9.62578 6.62983C10.6544 6.34464 11.7472 6.20365 12.8401 6.19724C13.933 6.20365 15.0258 6.34464 16.0544 6.62983C18.4973 4.97211 19.5741 5.31604 19.5741 5.31604C20.2651 7.08165 19.8312 8.38476 19.7026 8.7084C20.5223 9.60562 21.0205 10.7485 21.0205 12.1477C21.0205 17.0718 18.0151 18.1559 15.1544 18.471C15.6044 18.8556 16.0223 19.6417 16.0223 20.8423C16.0223 22.5577 16.0062 23.9355 16.0062 24.3521C16.0062 24.6886 16.2312 25.0891 16.8901 24.9609C22.0341 23.2797 25.7145 18.4732 25.7145 12.8175C25.7145 5.73902 19.9576 0 12.8572 0Z" fill="white"></path>
</svg>