<svg width="18" height="21" viewBox="0 0 18 21" fill="none" xmlns="http://www.w3.org/2000/svg">
<path d="M12.0175 1.5V4.875C12.0175 5.49632 12.5341 6 13.1714 6H16.6328M14.9021 3.1875C14.3886 2.73951 13.8557 2.20817 13.5193 1.86307C13.2954 1.63344 12.9861 1.5 12.6612 1.5H3.94054C2.66607 1.5 1.63291 2.50735 1.6329 3.74999L1.63281 17.2499C1.6328 18.4926 2.66596 19.5 3.94044 19.5L14.3249 19.5C15.5993 19.5 16.6325 18.4927 16.6325 17.2501L16.6328 5.32297C16.6328 5.03531 16.5203 4.75879 16.3155 4.55169C15.9369 4.16873 15.3046 3.53861 14.9021 3.1875Z" stroke="white" stroke-width="2" stroke-linecap="round" stroke-linejoin="round"></path>
</svg>