<svg width="25" height="25" viewBox="0 0 25 25" fill="none" xmlns="http://www.w3.org/2000/svg">
<path d="M21.2991 21.3043H17.597V15.5032C17.597 14.1199 17.5689 12.3397 15.6678 12.3397C13.7376 12.3397 13.4428 13.8449 13.4428 15.4011V21.3043H9.74069V9.37506H13.297V11.0011H13.3449C13.8418 10.0636 15.0501 9.07402 16.8553 9.07402C20.6064 9.07402 21.3001 11.5428 21.3001 14.7564V21.3043H21.2991ZM5.55941 7.74276C4.36774 7.74276 3.41044 6.77817 3.41044 5.5917C3.41044 4.40628 4.36878 3.44273 5.55941 3.44273C6.74692 3.44273 7.70943 4.40628 7.70943 5.5917C7.70943 6.77817 6.74588 7.74276 5.55941 7.74276ZM7.41568 21.3043H3.70315V9.37506H7.41568V21.3043ZM23.1512 0H1.8448C0.825006 0 0 0.806255 0 1.80105V23.1991C0 24.195 0.825006 25.0002 1.8448 25.0002H23.1481C24.1668 25.0002 25.0002 24.195 25.0002 23.1991V1.80105C25.0002 0.806255 24.1668 0 23.1481 0H23.1512Z" fill="white"></path>
</svg>