<svg width="72" height="78" viewBox="0 0 72 78" fill="none" xmlns="http://www.w3.org/2000/svg">
<path d="M20.7075 66.8773C19.3965 67.3104 18.6847 68.7242 19.1177 70.0353C19.5507 71.3463 20.9646 72.0581 22.2756 71.6251L20.7075 66.8773ZM42.828 70.6606L42.6033 68.1708L42.828 70.6606ZM55.6299 67.8418L56.7182 70.0925L55.6299 67.8418ZM67.8623 56.8157L65.9266 55.2335V55.2335L67.8623 56.8157ZM59.496 49.9166L57.7364 48.1407V48.1407L59.496 49.9166ZM53.8623 55.4988L55.6219 57.2747V57.2747L53.8623 55.4988ZM38.5607 55.4757C37.18 55.4757 36.0607 56.595 36.0607 57.9757C36.0607 59.3564 37.18 60.4757 38.5607 60.4757V55.4757ZM66.5616 49.2234L65.1837 51.3093L66.5616 49.2234ZM25.8214 47.374L26.9312 49.6141L26.9312 49.6141L25.8214 47.374ZM41.1336 45.9861L41.7858 43.5726L41.7858 43.5726L41.1336 45.9861ZM47.1133 47.602L46.4611 50.0154V50.0154L47.1133 47.602ZM49.0079 54.6712L47.2482 52.8953L47.2482 52.8953L49.0079 54.6712ZM43.9132 56.1999C42.9325 57.1717 42.9252 58.7546 43.897 59.7354C44.8688 60.7161 46.4517 60.7234 47.4325 59.7516L43.9132 56.1999ZM22.2756 71.6251C22.8592 71.4323 23.8751 71.3496 25.4493 71.4609C26.9726 71.5685 28.7374 71.8316 30.7085 72.1384C34.5052 72.7293 39.1215 73.5054 43.0528 73.1505L42.6033 68.1708C39.4224 68.4579 35.5041 67.8246 31.4774 67.1979C29.5369 66.8959 27.5678 66.5981 25.8017 66.4733C24.0865 66.3521 22.2576 66.3654 20.7075 66.8773L22.2756 71.6251ZM43.0528 73.1505C48.602 72.6496 51.1454 72.7871 56.7182 70.0925L54.5416 65.5911C49.9322 67.8199 48.3372 67.6532 42.6033 68.1708L43.0528 73.1505ZM56.7182 70.0925C61.7028 67.6822 66.7277 62.1541 69.798 58.3979L65.9266 55.2335C62.8322 59.0194 58.4204 63.7155 54.5416 65.5911L56.7182 70.0925ZM57.7364 48.1407L52.1027 53.723L55.6219 57.2747L61.2556 51.6925L57.7364 48.1407ZM47.8275 55.4757H38.5607V60.4757H47.8275V55.4757ZM52.1027 53.723C50.9727 54.8426 49.4353 55.4757 47.8275 55.4757V60.4757C50.7466 60.4757 53.5508 59.3269 55.6219 57.2747L52.1027 53.723ZM67.9396 47.1374C64.7338 45.0197 60.4666 45.4354 57.7364 48.1407L61.2556 51.6925C62.3002 50.6574 63.9476 50.4928 65.1837 51.3093L67.9396 47.1374ZM69.798 58.3979C72.7763 54.7541 71.6644 49.5979 67.9396 47.1374L65.1837 51.3093C66.6486 52.277 66.874 54.0746 65.9266 55.2335L69.798 58.3979ZM5.84486 46.3813H17.2243V41.3813H5.84486V46.3813ZM17.5691 46.7002V72.0701H22.5691V46.7002H17.5691ZM17.2243 72.389H5.84486V77.389H17.2243V72.389ZM5.5 72.0701V46.7002H0.5V72.0701H5.5ZM5.84486 72.389C5.63271 72.389 5.5 72.2246 5.5 72.0701H0.5C0.5 75.0292 2.91466 77.389 5.84486 77.389V72.389ZM17.5691 72.0701C17.5691 72.2246 17.4364 72.389 17.2243 72.389V77.389C20.1545 77.389 22.5691 75.0292 22.5691 72.0701H17.5691ZM17.2243 46.3813C17.4364 46.3813 17.5691 46.5457 17.5691 46.7002H22.5691C22.5691 43.7411 20.1545 41.3813 17.2243 41.3813V46.3813ZM5.84486 41.3813C2.91465 41.3813 0.5 43.7411 0.5 46.7002H5.5C5.5 46.5457 5.63272 46.3813 5.84486 46.3813V41.3813ZM22.6014 51.7592L26.9312 49.6141L24.7116 45.1338L20.3817 47.2789L22.6014 51.7592ZM34.7272 47.7908H35.8939V42.7908H34.7272V47.7908ZM40.4814 48.3995L46.4611 50.0154L47.7654 45.1886L41.7858 43.5726L40.4814 48.3995ZM47.2482 52.8953L43.9132 56.1999L47.4325 59.7516L50.7675 56.447L47.2482 52.8953ZM46.4611 50.0154C47.7837 50.3728 48.1799 51.9722 47.2482 52.8953L50.7675 56.447C54.4696 52.7788 52.7649 46.5396 47.7654 45.1886L46.4611 50.0154ZM35.8939 47.7908C37.4438 47.7908 38.9865 47.9955 40.4814 48.3995L41.7858 43.5726C39.8654 43.0537 37.884 42.7908 35.8939 42.7908V47.7908ZM26.9312 49.6141C29.3508 48.4154 32.02 47.7908 34.7272 47.7908V42.7908C31.2514 42.7908 27.8224 43.5926 24.7116 45.1338L26.9312 49.6141Z" fill="url(#paint0_linear_2450_3280)"></path>
<path d="M50.7738 34.2146C57.2375 34.2146 62.4773 28.9748 62.4773 22.5111C62.4773 16.0474 57.2375 10.8076 50.7738 10.8076C44.3101 10.8076 39.0703 16.0474 39.0703 22.5111C39.0703 28.9748 44.3101 34.2146 50.7738 34.2146Z" stroke="url(#paint1_linear_2450_3280)" stroke-width="5"></path>
<path d="M41 4.79513C39.2153 3.72594 37.1271 3.11133 34.8953 3.11133C28.3257 3.11133 23 8.43706 23 15.0067C23 20.0238 26.106 24.3154 30.5 26.0636" stroke="url(#paint2_linear_2450_3280)" stroke-width="5" stroke-linecap="round"></path>
<path d="M53.79 19.4447C53.6507 19.0682 53.3962 18.74 53.0594 18.5024C52.7226 18.2647 52.3188 18.1285 51.9 18.1113H49.1C48.543 18.1113 48.0089 18.322 47.6151 18.6971C47.2212 19.0722 47 19.5809 47 20.1113C47 20.6418 47.2212 21.1505 47.6151 21.5255C48.0089 21.9006 48.543 22.1113 49.1 22.1113H51.9C52.457 22.1113 52.9911 22.322 53.3849 22.6971C53.7788 23.0722 54 23.5809 54 24.1113C54 24.6418 53.7788 25.1505 53.3849 25.5255C52.9911 25.9006 52.457 26.1113 51.9 26.1113H49.1C48.6812 26.0941 48.2774 25.9579 47.9406 25.7203C47.6038 25.4827 47.3493 25.1545 47.21 24.778M50.5 16.1113V18.1113M50.5 26.1113V28.1113" stroke="url(#paint3_linear_2450_3280)" stroke-width="2" stroke-linecap="round" stroke-linejoin="round"></path>
<defs>
<linearGradient id="paint0_linear_2450_3280" x1="36" y1="49.745" x2="36" y2="74.8889" gradientUnits="userSpaceOnUse">
<stop stop-color="#FF9680"></stop>
<stop offset="1" stop-color="#FF6847"></stop>
</linearGradient>
<linearGradient id="paint1_linear_2450_3280" x1="50.7738" y1="15.2339" x2="50.7738" y2="34.2146" gradientUnits="userSpaceOnUse">
<stop stop-color="#FF9680"></stop>
<stop offset="1" stop-color="#FF6847"></stop>
</linearGradient>
<linearGradient id="paint2_linear_2450_3280" x1="32" y1="7.45166" x2="32" y2="26.0636" gradientUnits="userSpaceOnUse">
<stop stop-color="#FF9680"></stop>
<stop offset="1" stop-color="#FF6847"></stop>
</linearGradient>
<linearGradient id="paint3_linear_2450_3280" x1="50.5" y1="18.3806" x2="50.5" y2="28.1113" gradientUnits="userSpaceOnUse">
<stop stop-color="#FF9680"></stop>
<stop offset="1" stop-color="#FF6847"></stop>
</linearGradient>
</defs>
</svg>