<svg width="15" height="20" viewBox="0 0 15 20" fill="none" xmlns="http://www.w3.org/2000/svg">
<path fill-rule="evenodd" clip-rule="evenodd" d="M7.5 7C8.88071 7 10 5.88071 10 4.5C10 3.11929 8.88071 2 7.5 2C6.11929 2 5 3.11929 5 4.5C5 5.88071 6.11929 7 7.5 7ZM7.5 9C9.98528 9 12 6.98528 12 4.5C12 2.01472 9.98528 0 7.5 0C5.01472 0 3 2.01472 3 4.5C3 6.98528 5.01472 9 7.5 9Z" fill="white"></path>
<path fill-rule="evenodd" clip-rule="evenodd" d="M8.83255 12H6.11917C4.29393 12 2.71427 13.3055 2.3213 15.1388L1.9685 16.7847C1.83473 17.4088 2.29663 18 2.91797 18H12.0818C12.7142 18 13.1783 17.3888 13.0251 16.7577L12.6057 15.0308C12.1732 13.2497 10.6175 12 8.83255 12ZM6.11917 10C3.38131 10 1.01182 11.9583 0.42237 14.7082L0.0695708 16.3541C-0.331744 18.2263 1.05396 20 2.91797 20H12.0818C13.9791 20 15.3714 18.1664 14.9116 16.2731L14.4923 14.5462C13.8436 11.8745 11.5099 10 8.83255 10H6.11917Z" fill="white"></path>
</svg>